<mxfile host="app.diagrams.net" modified="2023-10-08T14:03:33.320Z" agent="Mozilla/5.0 (Windows NT 10.0; Win64; x64) AppleWebKit/537.36 (KHTML, like Gecko) Chrome/116.0.0.0 Safari/537.36 OPR/102.0.0.0" etag="QZ_x0MDK1F_RVBRHUT6l" version="21.8.2" type="device">
  <diagram id="C5RBs43oDa-KdzZeNtuy" name="Page-1">
    <mxGraphModel dx="961" dy="559" grid="0" gridSize="10" guides="1" tooltips="1" connect="1" arrows="1" fold="1" page="1" pageScale="1" pageWidth="827" pageHeight="1169" math="0" shadow="0">
      <root>
        <mxCell id="WIyWlLk6GJQsqaUBKTNV-0" />
        <mxCell id="WIyWlLk6GJQsqaUBKTNV-1" parent="WIyWlLk6GJQsqaUBKTNV-0" />
        <mxCell id="f-UEst7nbONEunKU4eRH-7" style="edgeStyle=orthogonalEdgeStyle;rounded=0;orthogonalLoop=1;jettySize=auto;html=1;exitX=0.5;exitY=1;exitDx=0;exitDy=0;entryX=0.5;entryY=0;entryDx=0;entryDy=0;" edge="1" parent="WIyWlLk6GJQsqaUBKTNV-1" source="f-UEst7nbONEunKU4eRH-0" target="f-UEst7nbONEunKU4eRH-6">
          <mxGeometry relative="1" as="geometry" />
        </mxCell>
        <mxCell id="f-UEst7nbONEunKU4eRH-0" value="Відкриття вікна програми" style="rounded=1;whiteSpace=wrap;html=1;" vertex="1" parent="WIyWlLk6GJQsqaUBKTNV-1">
          <mxGeometry x="214" y="158" width="120" height="60" as="geometry" />
        </mxCell>
        <mxCell id="f-UEst7nbONEunKU4eRH-16" style="edgeStyle=orthogonalEdgeStyle;rounded=0;orthogonalLoop=1;jettySize=auto;html=1;exitX=0.5;exitY=1;exitDx=0;exitDy=0;entryX=0.5;entryY=0;entryDx=0;entryDy=0;" edge="1" parent="WIyWlLk6GJQsqaUBKTNV-1" source="f-UEst7nbONEunKU4eRH-1" target="f-UEst7nbONEunKU4eRH-0">
          <mxGeometry relative="1" as="geometry" />
        </mxCell>
        <mxCell id="f-UEst7nbONEunKU4eRH-1" value="Старт" style="rounded=1;whiteSpace=wrap;html=1;" vertex="1" parent="WIyWlLk6GJQsqaUBKTNV-1">
          <mxGeometry x="214" y="68" width="120" height="60" as="geometry" />
        </mxCell>
        <mxCell id="f-UEst7nbONEunKU4eRH-19" style="edgeStyle=orthogonalEdgeStyle;rounded=0;orthogonalLoop=1;jettySize=auto;html=1;exitX=0;exitY=0.5;exitDx=0;exitDy=0;entryX=1;entryY=0.5;entryDx=0;entryDy=0;" edge="1" parent="WIyWlLk6GJQsqaUBKTNV-1" source="f-UEst7nbONEunKU4eRH-3" target="f-UEst7nbONEunKU4eRH-18">
          <mxGeometry relative="1" as="geometry" />
        </mxCell>
        <mxCell id="f-UEst7nbONEunKU4eRH-3" value="Обрахунок на мові Python" style="rounded=0;whiteSpace=wrap;html=1;" vertex="1" parent="WIyWlLk6GJQsqaUBKTNV-1">
          <mxGeometry x="434" y="398" width="120" height="60" as="geometry" />
        </mxCell>
        <mxCell id="f-UEst7nbONEunKU4eRH-22" style="edgeStyle=orthogonalEdgeStyle;rounded=0;orthogonalLoop=1;jettySize=auto;html=1;exitX=1;exitY=0.5;exitDx=0;exitDy=0;" edge="1" parent="WIyWlLk6GJQsqaUBKTNV-1" source="f-UEst7nbONEunKU4eRH-4" target="f-UEst7nbONEunKU4eRH-21">
          <mxGeometry relative="1" as="geometry" />
        </mxCell>
        <mxCell id="f-UEst7nbONEunKU4eRH-4" value="Обрахунок на мові Octave" style="rounded=0;whiteSpace=wrap;html=1;" vertex="1" parent="WIyWlLk6GJQsqaUBKTNV-1">
          <mxGeometry x="214" y="538" width="120" height="60" as="geometry" />
        </mxCell>
        <mxCell id="f-UEst7nbONEunKU4eRH-12" style="edgeStyle=orthogonalEdgeStyle;rounded=0;orthogonalLoop=1;jettySize=auto;html=1;exitX=1;exitY=0.5;exitDx=0;exitDy=0;entryX=0.058;entryY=0.35;entryDx=0;entryDy=0;entryPerimeter=0;" edge="1" parent="WIyWlLk6GJQsqaUBKTNV-1" source="f-UEst7nbONEunKU4eRH-6" target="f-UEst7nbONEunKU4eRH-14">
          <mxGeometry relative="1" as="geometry">
            <Array as="points">
              <mxPoint x="391" y="288" />
            </Array>
          </mxGeometry>
        </mxCell>
        <mxCell id="f-UEst7nbONEunKU4eRH-13" value="Так" style="edgeLabel;html=1;align=center;verticalAlign=middle;resizable=0;points=[];fontSize=16;" vertex="1" connectable="0" parent="f-UEst7nbONEunKU4eRH-12">
          <mxGeometry x="-0.04" y="-2" relative="1" as="geometry">
            <mxPoint x="-18" y="-2" as="offset" />
          </mxGeometry>
        </mxCell>
        <mxCell id="f-UEst7nbONEunKU4eRH-6" value="Run ?" style="rhombus;whiteSpace=wrap;html=1;" vertex="1" parent="WIyWlLk6GJQsqaUBKTNV-1">
          <mxGeometry x="234" y="248" width="80" height="80" as="geometry" />
        </mxCell>
        <mxCell id="f-UEst7nbONEunKU4eRH-10" style="edgeStyle=orthogonalEdgeStyle;rounded=0;orthogonalLoop=1;jettySize=auto;html=1;exitX=0;exitY=0.5;exitDx=0;exitDy=0;entryX=0.5;entryY=0;entryDx=0;entryDy=0;" edge="1" parent="WIyWlLk6GJQsqaUBKTNV-1" source="f-UEst7nbONEunKU4eRH-6" target="f-UEst7nbONEunKU4eRH-6">
          <mxGeometry relative="1" as="geometry">
            <Array as="points">
              <mxPoint x="214" y="288" />
              <mxPoint x="214" y="248" />
            </Array>
          </mxGeometry>
        </mxCell>
        <mxCell id="f-UEst7nbONEunKU4eRH-11" value="Ні" style="edgeLabel;html=1;align=center;verticalAlign=middle;resizable=0;points=[];fontSize=16;" vertex="1" connectable="0" parent="f-UEst7nbONEunKU4eRH-10">
          <mxGeometry x="-0.3625" y="2" relative="1" as="geometry">
            <mxPoint as="offset" />
          </mxGeometry>
        </mxCell>
        <mxCell id="f-UEst7nbONEunKU4eRH-17" style="edgeStyle=orthogonalEdgeStyle;rounded=0;orthogonalLoop=1;jettySize=auto;html=1;exitX=0.5;exitY=1;exitDx=0;exitDy=0;entryX=0.5;entryY=0;entryDx=0;entryDy=0;" edge="1" parent="WIyWlLk6GJQsqaUBKTNV-1" source="f-UEst7nbONEunKU4eRH-14" target="f-UEst7nbONEunKU4eRH-3">
          <mxGeometry relative="1" as="geometry" />
        </mxCell>
        <mxCell id="f-UEst7nbONEunKU4eRH-14" value="Зчитуєм матрицю А та вектор b із файлів" style="shape=parallelogram;perimeter=parallelogramPerimeter;whiteSpace=wrap;html=1;fixedSize=1;" vertex="1" parent="WIyWlLk6GJQsqaUBKTNV-1">
          <mxGeometry x="414" y="258" width="160" height="120" as="geometry" />
        </mxCell>
        <mxCell id="f-UEst7nbONEunKU4eRH-20" style="edgeStyle=orthogonalEdgeStyle;rounded=0;orthogonalLoop=1;jettySize=auto;html=1;exitX=0.5;exitY=1;exitDx=0;exitDy=0;entryX=0.5;entryY=0;entryDx=0;entryDy=0;" edge="1" parent="WIyWlLk6GJQsqaUBKTNV-1" source="f-UEst7nbONEunKU4eRH-18" target="f-UEst7nbONEunKU4eRH-4">
          <mxGeometry relative="1" as="geometry" />
        </mxCell>
        <mxCell id="f-UEst7nbONEunKU4eRH-18" value="Зчитуєм матрицю А та вектор b із файлів" style="shape=parallelogram;perimeter=parallelogramPerimeter;whiteSpace=wrap;html=1;fixedSize=1;" vertex="1" parent="WIyWlLk6GJQsqaUBKTNV-1">
          <mxGeometry x="194" y="368" width="160" height="120" as="geometry" />
        </mxCell>
        <mxCell id="f-UEst7nbONEunKU4eRH-24" style="edgeStyle=orthogonalEdgeStyle;rounded=0;orthogonalLoop=1;jettySize=auto;html=1;exitX=1;exitY=0.5;exitDx=0;exitDy=0;entryX=0.5;entryY=0;entryDx=0;entryDy=0;" edge="1" parent="WIyWlLk6GJQsqaUBKTNV-1" source="f-UEst7nbONEunKU4eRH-21" target="f-UEst7nbONEunKU4eRH-6">
          <mxGeometry relative="1" as="geometry">
            <Array as="points">
              <mxPoint x="604" y="568" />
              <mxPoint x="604" y="248" />
            </Array>
          </mxGeometry>
        </mxCell>
        <mxCell id="f-UEst7nbONEunKU4eRH-21" value="Виведення результатів та похибок" style="shape=parallelogram;perimeter=parallelogramPerimeter;whiteSpace=wrap;html=1;fixedSize=1;" vertex="1" parent="WIyWlLk6GJQsqaUBKTNV-1">
          <mxGeometry x="434" y="528" width="110" height="80" as="geometry" />
        </mxCell>
      </root>
    </mxGraphModel>
  </diagram>
</mxfile>
